<svg width="60" height="60" viewBox="0 0 60 60" fill="none" xmlns="http://www.w3.org/2000/svg">
<path d="M53.9976 29.6727C53.9976 29.4442 53.9976 29.1699 53.9747 28.8728C53.9519 28.3928 53.5405 28.0042 53.0605 28.0042H52.4434C52.192 21.4446 46.8437 16.1877 40.284 16.1877C37.0613 16.1877 34.1357 17.4676 31.9416 19.5247C31.4844 18.5876 30.7302 17.5819 29.6331 16.5305C28.4217 15.342 27.8046 14.1535 27.5761 13.0564H51.8948C52.3977 13.0564 52.8091 12.645 52.8091 12.1422C52.8091 11.6393 52.3977 11.2279 51.8948 11.2279H27.4846C27.5761 10.1766 27.9418 9.35374 28.1703 8.91948L52.0091 6.3139C52.512 6.26818 52.8777 5.81106 52.8091 5.30823C52.7634 4.8054 52.3063 4.4397 51.8034 4.50827L17.4051 8.27951C16.9023 8.32522 16.5366 8.78234 16.6052 9.28518C16.6509 9.7423 17.0623 10.108 17.5194 10.108C17.5423 10.108 17.588 10.108 17.6108 10.108L18.1365 10.0623C17.9994 10.428 17.908 10.8165 17.8851 11.2736H17.5194C17.0166 11.2736 16.6052 11.6851 16.6052 12.1879C16.6052 12.6907 17.0166 13.1021 17.5194 13.1021H18.228C18.6622 14.1306 19.5079 15.0677 20.7878 15.9134C22.982 17.3762 22.8677 18.0619 22.8677 18.0847C22.822 18.359 22.1592 18.839 20.6278 19.1361C20.0107 18.999 19.3708 18.9304 18.7079 18.9304C13.7025 18.9304 9.61125 22.9759 9.47411 28.0042H6.9371C6.45712 28.0042 6.04571 28.3928 6.02286 28.8728C6 29.1699 6 29.4213 6 29.6727C6 38.1523 11.7597 45.4891 20.0336 48.8032C18.9365 48.8489 18.068 49.7631 18.068 50.8602V53.443C18.068 54.5858 18.9822 55.5 20.125 55.5H38.5698C39.7126 55.5 40.6268 54.5858 40.6268 53.443V50.8602C40.6268 50.0374 40.1469 49.3289 39.4612 49.0089C48.0093 45.7862 53.9976 38.3351 53.9976 29.6727ZM40.3069 18.0162C45.8609 18.0162 50.3863 22.4502 50.6378 28.0042H49.3121C49.0378 23.2959 45.038 19.5475 40.1469 19.5475C35.2557 19.5475 31.233 23.2959 30.9816 28.0042H29.9759C30.0445 26.7243 30.3188 25.4901 30.7988 24.3701C31.5987 23.8216 32.1473 23.1359 32.353 22.3131C32.3987 22.1074 32.4444 21.9017 32.4672 21.6731C34.3414 19.4332 37.1527 18.0162 40.3069 18.0162ZM45.2895 28.0042C45.038 25.4444 42.821 23.433 40.124 23.433C37.427 23.433 35.21 25.4444 34.9585 28.0042H32.8329C33.1072 24.3016 36.2842 21.376 40.1697 21.376C44.0552 21.376 47.2322 24.3016 47.5065 28.0042H45.2895ZM43.4381 28.0042H36.787C37.0384 26.45 38.4327 25.2615 40.1012 25.2615C41.7925 25.2615 43.1867 26.45 43.4381 28.0042ZM30.5931 21.0789C30.1359 21.696 29.7245 22.3817 29.3588 23.0902C28.9017 23.3188 28.4217 23.4788 28.1246 23.5473C27.6446 23.6616 27.3475 24.1644 27.4618 24.6673C27.5761 25.0787 27.9418 25.3529 28.3532 25.3529C28.4217 25.3529 28.4674 25.3529 28.536 25.3301C28.3075 26.1986 28.1703 27.09 28.1475 28.0042H27.9418C27.896 26.0386 27.2332 24.2101 26.1361 22.7245C27.5761 22.1988 28.4903 21.3531 28.7417 20.3018C28.9931 19.2961 28.6274 18.2219 27.6903 17.0791C27.9189 17.3305 28.1475 17.6048 28.3989 17.8562C29.656 19.0904 30.4102 20.2103 30.5931 21.0789ZM27.5303 16.9191C27.1189 16.4391 26.5933 15.9363 25.9533 15.4106C24.9705 14.6106 24.3991 13.8107 24.1019 13.0793H25.7476C25.9304 14.2906 26.4561 15.5934 27.5303 16.9191ZM25.6562 11.2508H23.8048C23.8734 10.3823 24.2391 9.69658 24.4676 9.35374L26.0904 9.1709C25.9076 9.7423 25.7247 10.4508 25.6562 11.2508ZM20.285 9.78801L22.342 9.55945C22.1592 10.0394 22.0221 10.6108 21.9763 11.2279H19.6907C19.7593 10.6108 20.0793 10.0851 20.285 9.78801ZM21.7706 14.3592C21.1307 13.9478 20.6507 13.5135 20.3079 13.0564H22.1592C22.4792 14.2449 23.2563 15.5477 24.7876 16.8048C26.959 18.5876 27.0275 19.5247 26.9361 19.8446C26.799 20.3932 25.9761 20.896 24.7419 21.1931C24.2848 20.7817 23.782 20.4389 23.2563 20.1189C24.0334 19.6847 24.5134 19.1133 24.6505 18.4276C24.9248 17.1705 23.9877 15.8448 21.7706 14.3592ZM18.6851 20.7589C22.6849 20.7589 25.9533 23.9816 26.0904 28.0042H25.6104C25.4733 24.3473 22.3649 21.4217 18.5937 21.4217C14.7996 21.4217 11.714 24.3473 11.5769 28.0042H11.3026C11.4169 23.9816 14.6853 20.7589 18.6851 20.7589ZM22.6163 28.0042C22.4792 25.9243 20.6964 24.2787 18.5479 24.2787C16.3995 24.2787 14.6167 25.9243 14.4796 28.0042H13.3825C13.5196 25.3529 15.8052 23.2502 18.5708 23.2502C21.3364 23.2502 23.622 25.3529 23.7591 28.0042H22.6163ZM20.7878 28.0042H16.3309C16.468 26.93 17.428 26.1072 18.5708 26.1072C19.6907 26.1072 20.6507 26.93 20.7878 28.0042ZM38.5698 50.6317C38.7069 50.6317 38.7984 50.7231 38.7984 50.8602V53.443C38.7984 53.5801 38.7069 53.6715 38.5698 53.6715H20.125C19.9879 53.6715 19.8964 53.5801 19.8964 53.443V50.8602C19.8964 50.7231 19.9879 50.6317 20.125 50.6317H27.9646C28.6274 50.6774 29.3131 50.7002 29.9988 50.7002C30.6845 50.7002 31.3702 50.6774 32.033 50.6317H38.5698ZM31.9644 48.8032H28.0332C16.788 47.9347 7.9199 39.7751 7.82848 29.8327H52.1691C52.0777 39.7751 43.2096 47.9347 31.9644 48.8032Z" fill="#E3C08D"/>
</svg>
