<svg width="18" height="18" viewBox="0 0 18 18" fill="none" xmlns="http://www.w3.org/2000/svg">
<path d="M16.667 0.666748H1.33366C0.964909 0.666748 0.666992 0.964665 0.666992 1.33341V16.6667C0.666992 17.0355 0.964909 17.3334 1.33366 17.3334H16.667C17.0357 17.3334 17.3337 17.0355 17.3337 16.6667V1.33341C17.3337 0.964665 17.0357 0.666748 16.667 0.666748ZM14.742 5.53133H13.4107C12.367 5.53133 12.1649 6.02716 12.1649 6.75633V8.36258H14.6566L14.3316 10.8772H12.1649V17.3334H9.56699V10.8792H7.39407V8.36258H9.56699V6.50841C9.56699 4.35633 10.8816 3.18341 12.8024 3.18341C13.7232 3.18341 14.5128 3.25216 14.7441 3.28341V5.53133H14.742Z" fill="#AAAAAA"/>
</svg>
