<svg width="18" height="18" viewBox="0 0 18 18" fill="none" xmlns="http://www.w3.org/2000/svg">
<path d="M8.99824 6.22112C7.46804 6.22112 6.21928 7.46988 6.21928 9.00008C6.21928 10.5303 7.46804 11.779 8.99824 11.779C10.5284 11.779 11.7772 10.5303 11.7772 9.00008C11.7772 7.46988 10.5284 6.22112 8.99824 6.22112ZM17.333 9.00008C17.333 7.8493 17.3435 6.70895 17.2788 5.56026C17.2142 4.22602 16.9098 3.04189 15.9342 2.06623C14.9564 1.08849 13.7744 0.786198 12.4401 0.721571C11.2894 0.656944 10.149 0.667368 9.00032 0.667368C7.84955 0.667368 6.70919 0.656944 5.5605 0.721571C4.22627 0.786198 3.04213 1.09057 2.06647 2.06623C1.08873 3.04397 0.786443 4.22602 0.721816 5.56026C0.657189 6.71103 0.667612 7.85139 0.667612 9.00008C0.667612 10.1488 0.657189 11.2912 0.721816 12.4399C0.786443 13.7741 1.09081 14.9583 2.06647 15.9339C3.04422 16.9117 4.22627 17.214 5.5605 17.2786C6.71128 17.3432 7.85163 17.3328 9.00032 17.3328C10.1511 17.3328 11.2915 17.3432 12.4401 17.2786C13.7744 17.214 14.9585 16.9096 15.9342 15.9339C16.9119 14.9562 17.2142 13.7741 17.2788 12.4399C17.3455 11.2912 17.333 10.1509 17.333 9.00008ZM8.99824 13.2759C6.63206 13.2759 4.72243 11.3663 4.72243 9.00008C4.72243 6.6339 6.63206 4.72428 8.99824 4.72428C11.3644 4.72428 13.274 6.6339 13.274 9.00008C13.274 11.3663 11.3644 13.2759 8.99824 13.2759ZM13.4492 5.54775C12.8967 5.54775 12.4506 5.10161 12.4506 4.54916C12.4506 3.9967 12.8967 3.55057 13.4492 3.55057C14.0016 3.55057 14.4478 3.9967 14.4478 4.54916C14.4479 4.68034 14.4222 4.81027 14.3721 4.9315C14.322 5.05272 14.2484 5.16287 14.1556 5.25563C14.0629 5.3484 13.9527 5.42194 13.8315 5.47207C13.7103 5.5222 13.5803 5.54791 13.4492 5.54775Z" fill="#AAAAAA"/>
</svg>
