<svg width="18" height="13" viewBox="0 0 18 13" fill="none" xmlns="http://www.w3.org/2000/svg">
<path d="M16.9858 2.11938C16.8909 1.74127 16.7049 1.39645 16.4464 1.11945C16.1878 0.842439 15.8658 0.642953 15.5126 0.540952C14.2124 0.166748 9.00032 0.166748 9.00032 0.166748C9.00032 0.166748 3.78827 0.166748 2.48805 0.538961C2.13466 0.640631 1.8125 0.840007 1.55391 1.11707C1.29532 1.39412 1.1094 1.73911 1.01483 2.11739C0.666992 3.5107 0.666992 6.41675 0.666992 6.41675C0.666992 6.41675 0.666992 9.3228 1.01483 10.7141C1.20643 11.4824 1.7719 12.0875 2.48805 12.2925C3.78827 12.6667 9.00032 12.6667 9.00032 12.6667C9.00032 12.6667 14.2124 12.6667 15.5126 12.2925C16.2306 12.0875 16.7942 11.4824 16.9858 10.7141C17.3337 9.3228 17.3337 6.41675 17.3337 6.41675C17.3337 6.41675 17.3337 3.5107 16.9858 2.11938ZM7.34482 9.08395V3.74955L11.6603 6.39684L7.34482 9.08395Z" fill="#AAAAAA"/>
</svg>
