<svg width="1440" height="811" viewBox="0 0 1440 811" fill="none" xmlns="http://www.w3.org/2000/svg">
<g opacity="0.34">
<path d="M1268 215H1441" stroke="#E3C08D"/>
<path d="M1268 223.262H1441" stroke="#E3C08D"/>
<path d="M1268 231.525H1441" stroke="#E3C08D"/>
<path d="M1268 239.787H1441" stroke="#E3C08D"/>
<path d="M1268 248.049H1441" stroke="#E3C08D"/>
<path d="M1268 256.312H1441" stroke="#E3C08D"/>
<path d="M1268 264.574H1441" stroke="#E3C08D"/>
<path d="M1268 272.836H1441" stroke="#E3C08D"/>
<path d="M1268 281.098H1441" stroke="#E3C08D"/>
<path d="M1268 289.361H1441" stroke="#E3C08D"/>
<path d="M1268 297.623H1441" stroke="#E3C08D"/>
<path d="M1268 305.885H1441" stroke="#E3C08D"/>
</g>
<g opacity="0.5">
<path d="M91.8853 637L91.8853 810" stroke="#E3C08D"/>
<path d="M83.623 637L83.623 810" stroke="#E3C08D"/>
<path d="M75.3608 637L75.3608 810" stroke="#E3C08D"/>
<path d="M67.0981 637L67.0981 810" stroke="#E3C08D"/>
<path d="M58.8359 637L58.8359 810" stroke="#E3C08D"/>
<path d="M50.5737 637L50.5737 810" stroke="#E3C08D"/>
<path d="M42.3115 637L42.3115 810" stroke="#E3C08D"/>
<path d="M34.0493 637L34.0493 810" stroke="#E3C08D"/>
<path d="M25.7871 637L25.7871 810" stroke="#E3C08D"/>
<path d="M17.5244 637L17.5244 810" stroke="#E3C08D"/>
<path d="M9.26221 637L9.26221 810" stroke="#E3C08D"/>
<path d="M1 637L1 810" stroke="#E3C08D"/>
<path d="M169 810L91.8852 810" stroke="#E3C08D"/>
<path d="M169 801.696L91.8852 801.696" stroke="#E3C08D"/>
<path d="M169 793.392L91.8852 793.392" stroke="#E3C08D"/>
<path d="M169 785.088L91.8852 785.088" stroke="#E3C08D"/>
<path d="M169 776.784L91.8852 776.784" stroke="#E3C08D"/>
<path d="M169 768.48L91.8852 768.48" stroke="#E3C08D"/>
<path d="M169 760.176L91.8852 760.176" stroke="#E3C08D"/>
<path d="M169 751.872L91.8852 751.872" stroke="#E3C08D"/>
<path d="M169 743.568L91.8852 743.568" stroke="#E3C08D"/>
<path d="M169 735.264L91.8852 735.264" stroke="#E3C08D"/>
<path d="M169 726.96L91.8852 726.96" stroke="#E3C08D"/>
<path d="M169 718.656L91.8852 718.656" stroke="#E3C08D"/>
</g>
<g opacity="0.5">
<path d="M903 724.385L1053.39 574" stroke="#E3C08D"/>
<path d="M910.182 731.567L1060.57 581.182" stroke="#E3C08D"/>
<path d="M917.364 738.75L1067.75 588.365" stroke="#E3C08D"/>
<path d="M924.547 745.932L1074.93 595.547" stroke="#E3C08D"/>
<path d="M931.729 753.114L1082.11 602.729" stroke="#E3C08D"/>
<path d="M938.911 760.296L1089.3 609.911" stroke="#E3C08D"/>
<path d="M946.093 767.479L1096.48 617.094" stroke="#E3C08D"/>
<path d="M953.275 774.661L1103.66 624.276" stroke="#E3C08D"/>
<path d="M960.458 781.843L1110.84 631.458" stroke="#E3C08D"/>
<path d="M967.64 789.025L1118.03 638.64" stroke="#E3C08D"/>
<path d="M974.822 796.208L1125.21 645.823" stroke="#E3C08D"/>
<path d="M982.004 803.39L1132.39 653.005" stroke="#E3C08D"/>
</g>
</svg>
