<svg width="125" height="44" viewBox="0 0 125 44" fill="none" xmlns="http://www.w3.org/2000/svg">
<g filter="url(#filter0_d)">
<path d="M22.0658 29.052C21.1763 29.052 20.1787 28.872 19.0729 28.512C17.967 28.152 16.8252 27.72 15.6472 27.216C14.4933 26.712 13.3634 26.232 12.2576 25.776C11.6566 26.424 11.0076 26.928 10.3104 27.288C9.61326 27.648 8.86803 27.828 8.07472 27.828C7.23333 27.828 6.51214 27.636 5.91115 27.252C5.28612 26.892 4.81735 26.448 4.50483 25.92C4.16828 25.392 4 24.912 4 24.48C4 24 4.21636 23.58 4.64907 23.22C5.08178 22.86 5.85105 22.68 6.95688 22.68C7.60595 22.68 8.31512 22.752 9.08438 22.896C9.87769 23.016 10.683 23.184 11.5004 23.4C12.0533 22.44 12.5581 21.312 13.0149 20.016C13.4957 18.72 13.9644 17.364 14.4212 15.948C14.8779 14.508 15.3347 13.104 15.7914 11.736C14.5895 11.328 13.6639 10.764 13.0149 10.044C12.3658 9.3 12.0413 8.556 12.0413 7.812C12.0413 7.332 12.1615 6.864 12.4019 6.408C12.6423 5.928 12.9908 5.532 13.4476 5.22C13.9043 4.884 14.4452 4.716 15.0703 4.716C14.7577 5.1 14.5534 5.532 14.4572 6.012C14.3851 6.492 14.3491 6.876 14.3491 7.164C14.3491 7.956 14.5294 8.628 14.89 9.18C15.2506 9.732 15.6953 10.164 16.2242 10.476C16.6809 9.108 17.1617 7.8 17.6665 6.552C18.1954 5.28 18.7724 4.164 19.3974 3.204C20.0465 2.22 20.7556 1.44 21.5249 0.863999C22.3182 0.288 23.2077 0 24.1933 0C24.7462 0 25.3232 0.12 25.9242 0.36C26.5492 0.576 27.0781 0.96 27.5108 1.512C27.9675 2.064 28.1959 2.856 28.1959 3.888C28.1959 4.704 28.0156 5.58 27.655 6.516C27.3185 7.452 26.7776 8.352 26.0323 9.216C25.2871 10.056 24.3255 10.764 23.1476 11.34C21.9937 11.892 20.5874 12.192 18.9286 12.24C18.8805 12.24 18.8204 12.24 18.7483 12.24C18.7002 12.24 18.6522 12.24 18.6041 12.24C18.1473 13.632 17.6665 15.036 17.1617 16.452C16.6569 17.868 16.116 19.224 15.539 20.52C14.9621 21.816 14.337 22.968 13.6639 23.976C14.6015 24.24 15.6352 24.54 16.7651 24.876C17.919 25.212 19.0608 25.5 20.1907 25.74C21.3446 25.956 22.3543 26.064 23.2197 26.064C23.7966 26.064 24.3255 26.004 24.8063 25.884C25.3111 25.74 25.84 25.536 26.3929 25.272C25.9121 26.616 25.3111 27.576 24.59 28.152C23.8928 28.752 23.0514 29.052 22.0658 29.052ZM7.71412 26.496C8.33916 26.496 8.84399 26.352 9.22862 26.064C9.61326 25.8 9.99789 25.464 10.3825 25.056C9.6373 24.792 8.94015 24.576 8.29108 24.408C7.64201 24.216 7.07707 24.12 6.59628 24.12C6.13953 24.12 5.81499 24.204 5.62268 24.372C5.40632 24.54 5.29814 24.744 5.29814 24.984C5.29814 25.368 5.53854 25.716 6.01933 26.028C6.50012 26.34 7.06505 26.496 7.71412 26.496ZM19.0007 11.052C20.0585 10.98 20.996 10.644 21.8134 10.044C22.6307 9.444 23.3279 8.724 23.9048 7.884C24.4818 7.044 24.9145 6.192 25.203 5.328C25.5155 4.44 25.6717 3.672 25.6717 3.024C25.6717 2.4 25.5515 1.98 25.3111 1.764C25.0707 1.524 24.7943 1.404 24.4818 1.404C23.7846 1.404 23.1235 1.848 22.4985 2.736C21.8735 3.624 21.2725 4.8 20.6955 6.264C20.1426 7.704 19.5777 9.3 19.0007 11.052Z" fill="#D7B686"/>
<path d="M32.0771 27.504C30.5385 27.504 29.3486 27.084 28.5072 26.244C27.6898 25.428 27.2812 24.396 27.2812 23.148C27.2812 22.092 27.5456 20.976 28.0745 19.8C28.6274 18.6 29.3606 17.484 30.2741 16.452C31.1876 15.396 32.1973 14.544 33.3031 13.896C34.4089 13.248 35.5147 12.924 36.6206 12.924C37.2456 12.924 37.8346 13.092 38.3875 13.428C38.9644 13.74 39.2529 14.376 39.2529 15.336C39.2529 16.248 38.9885 17.1 38.4596 17.892C37.9307 18.684 37.2216 19.392 36.3321 20.016C35.4426 20.64 34.457 21.156 33.3752 21.564C32.3175 21.948 31.2477 22.2 30.1659 22.32C30.1419 22.416 30.1179 22.524 30.0938 22.644C30.0938 22.74 30.0938 22.908 30.0938 23.148C30.0938 23.268 30.1058 23.484 30.1299 23.796C30.178 24.084 30.2861 24.396 30.4544 24.732C30.6227 25.068 30.8991 25.356 31.2838 25.596C31.6684 25.836 32.1973 25.956 32.8704 25.956C33.8801 25.956 34.8897 25.68 35.8994 25.128C36.9331 24.552 37.8947 23.796 38.7841 22.86C39.6977 21.924 40.4549 20.88 41.0559 19.728L41.7771 20.304C41.128 21.744 40.2866 23.004 39.2529 24.084C38.2432 25.164 37.1134 26.004 35.8633 26.604C34.6373 27.204 33.3752 27.504 32.0771 27.504ZM30.5626 20.988C31.1876 20.916 31.8848 20.7 32.654 20.34C33.4233 19.98 34.1565 19.524 34.8537 18.972C35.5748 18.42 36.1638 17.82 36.6206 17.172C37.0773 16.5 37.3057 15.828 37.3057 15.156C37.3057 14.892 37.2576 14.712 37.1615 14.616C37.0653 14.52 36.9091 14.472 36.6927 14.472C36.1398 14.472 35.5628 14.676 34.9618 15.084C34.3608 15.468 33.7719 15.984 33.1949 16.632C32.618 17.256 32.1011 17.952 31.6444 18.72C31.1876 19.488 30.827 20.244 30.5626 20.988Z" fill="#D7B686"/>
<path d="M40.4725 36C39.6311 36 38.97 35.832 38.4892 35.496C37.9844 35.184 37.7319 34.656 37.7319 33.912C37.7319 33.096 37.9964 32.364 38.5252 31.716C39.0301 31.068 39.7152 30.456 40.5806 29.88C41.4701 29.304 42.4437 28.716 43.5015 28.116C44.5832 27.516 45.665 26.856 46.7468 26.136C46.7228 25.368 46.4824 24.636 46.0256 23.94C45.5929 23.244 44.8236 22.5 43.7178 21.708C44.6554 21.444 45.4487 21.036 46.0977 20.484C46.7468 19.908 47.2396 19.284 47.5762 18.612C47.9127 17.916 48.081 17.268 48.081 16.668C48.081 16.236 47.9728 15.852 47.7565 15.516C47.5401 15.156 47.1555 14.976 46.6026 14.976C45.8814 14.976 45.2083 15.288 44.5832 15.912C43.9582 16.536 43.3572 17.34 42.7803 18.324C42.2274 19.308 41.6865 20.364 41.1576 21.492L40.4725 20.916C41.0013 19.5 41.5542 18.216 42.1312 17.064C42.7322 15.888 43.4293 14.952 44.2226 14.256C45.04 13.56 46.0136 13.212 47.1435 13.212C48.1291 13.212 48.9705 13.488 49.6676 14.04C50.3648 14.592 50.7133 15.396 50.7133 16.452C50.7133 17.196 50.521 17.928 50.1364 18.648C49.7758 19.344 49.283 19.992 48.658 20.592C48.057 21.168 47.3839 21.648 46.6386 22.032C47.1675 22.44 47.6243 22.908 48.0089 23.436C48.4176 23.964 48.7421 24.48 48.9825 24.984C49.8479 24.312 50.6292 23.568 51.3264 22.752C52.0235 21.936 52.5764 21 52.9851 19.944L53.4539 20.52C53.0933 21.576 52.5524 22.572 51.8312 23.508C51.134 24.42 50.3047 25.224 49.3431 25.92C49.3912 26.088 49.4272 26.256 49.4513 26.424C49.4753 26.616 49.4873 26.844 49.4873 27.108C49.4873 28.164 49.2469 29.208 48.7661 30.24C48.2853 31.296 47.6122 32.256 46.7468 33.12C45.9054 33.984 44.9438 34.68 43.862 35.208C42.8043 35.736 41.6744 36 40.4725 36ZM39.9676 34.632C40.4003 34.632 40.9532 34.464 41.6264 34.128C42.3235 33.816 43.0207 33.348 43.7178 32.724C44.439 32.124 45.064 31.392 45.5929 30.528C46.1458 29.664 46.5064 28.68 46.6747 27.576C45.7852 28.152 44.8837 28.692 43.9702 29.196C43.0567 29.7 42.2274 30.192 41.4821 30.672C40.7369 31.176 40.1359 31.668 39.6791 32.148C39.2224 32.628 38.994 33.132 38.994 33.66C38.994 33.996 39.0902 34.236 39.2825 34.38C39.4748 34.548 39.7032 34.632 39.9676 34.632Z" fill="#D7B686"/>
<path d="M52.4101 36C51.5687 36 50.9076 35.832 50.4268 35.496C49.922 35.184 49.6696 34.656 49.6696 33.912C49.6696 33.096 49.934 32.364 50.4629 31.716C50.9677 31.068 51.6529 30.456 52.5183 29.88C53.4078 29.304 54.3814 28.716 55.4391 28.116C56.5209 27.516 57.6027 26.856 58.6845 26.136C58.6604 25.368 58.42 24.636 57.9633 23.94C57.5306 23.244 56.7613 22.5 55.6555 21.708C56.593 21.444 57.3863 21.036 58.0354 20.484C58.6845 19.908 59.1773 19.284 59.5138 18.612C59.8504 17.916 60.0187 17.268 60.0187 16.668C60.0187 16.236 59.9105 15.852 59.6941 15.516C59.4778 15.156 59.0931 14.976 58.5402 14.976C57.819 14.976 57.1459 15.288 56.5209 15.912C55.8959 16.536 55.2949 17.34 54.7179 18.324C54.165 19.308 53.6241 20.364 53.0952 21.492L52.4101 20.916C52.939 19.5 53.4919 18.216 54.0688 17.064C54.6698 15.888 55.367 14.952 56.1603 14.256C56.9776 13.56 57.9513 13.212 59.0811 13.212C60.0667 13.212 60.9081 13.488 61.6053 14.04C62.3024 14.592 62.651 15.396 62.651 16.452C62.651 17.196 62.4587 17.928 62.0741 18.648C61.7135 19.344 61.2206 19.992 60.5956 20.592C59.9946 21.168 59.3215 21.648 58.5763 22.032C59.1052 22.44 59.5619 22.908 59.9465 23.436C60.3552 23.964 60.6798 24.48 60.9201 24.984C61.7856 24.312 62.5669 23.568 63.264 22.752C63.9612 21.936 64.5141 21 64.9227 19.944L65.3915 20.52C65.0309 21.576 64.49 22.572 63.7688 23.508C63.0717 24.42 62.2423 25.224 61.2807 25.92C61.3288 26.088 61.3649 26.256 61.3889 26.424C61.413 26.616 61.425 26.844 61.425 27.108C61.425 28.164 61.1846 29.208 60.7038 30.24C60.223 31.296 59.5499 32.256 58.6845 33.12C57.8431 33.984 56.8815 34.68 55.7997 35.208C54.742 35.736 53.6121 36 52.4101 36ZM51.9053 34.632C52.338 34.632 52.8909 34.464 53.564 34.128C54.2612 33.816 54.9583 33.348 55.6555 32.724C56.3767 32.124 57.0017 31.392 57.5306 30.528C58.0835 29.664 58.4441 28.68 58.6123 27.576C57.7229 28.152 56.8214 28.692 55.9079 29.196C54.9944 29.7 54.165 30.192 53.4198 30.672C52.6745 31.176 52.0736 31.668 51.6168 32.148C51.16 32.628 50.9317 33.132 50.9317 33.66C50.9317 33.996 51.0278 34.236 51.2201 34.38C51.4125 34.548 51.6408 34.632 51.9053 34.632Z" fill="#D7B686"/>
<path d="M66.0786 27.612C65.2853 27.612 64.6002 27.348 64.0232 26.82C63.4222 26.292 63.1217 25.5 63.1217 24.444C63.1217 23.604 63.3141 22.692 63.6987 21.708C64.0833 20.724 64.6122 19.752 65.2853 18.792C65.9584 17.832 66.7277 16.968 67.5931 16.2C68.4585 15.408 69.3841 14.772 70.3697 14.292C71.3553 13.812 72.3409 13.572 73.3266 13.572C74.3603 13.572 75.2377 13.836 75.9589 14.364C76.6801 14.892 77.0407 15.588 77.0407 16.452C77.0407 17.1 76.8123 17.568 76.3556 17.856C75.8988 18.144 75.3579 18.228 74.7329 18.108C74.781 17.892 74.817 17.676 74.8411 17.46C74.8892 17.244 74.9132 17.016 74.9132 16.776C74.9132 16.296 74.817 15.864 74.6247 15.48C74.4324 15.096 74.0237 14.904 73.3987 14.904C72.7256 14.904 72.0405 15.132 71.3433 15.588C70.6462 16.044 69.973 16.644 69.324 17.388C68.6989 18.108 68.134 18.912 67.6292 19.8C67.1243 20.664 66.7277 21.516 66.4392 22.356C66.1507 23.196 66.0065 23.952 66.0065 24.624C66.0065 25.392 66.283 25.776 66.8359 25.776C67.3888 25.776 68.0018 25.512 68.6749 24.984C69.348 24.432 70.0211 23.748 70.6942 22.932C71.3914 22.116 72.0525 21.288 72.6775 20.448C73.3025 19.584 73.8434 18.852 74.3002 18.252C74.3723 18.132 74.4685 18.072 74.5887 18.072C74.6848 18.096 74.8651 18.156 75.1295 18.252C75.418 18.324 75.6825 18.444 75.9229 18.612C76.1633 18.78 76.2835 18.996 76.2835 19.26C76.2835 19.5 76.1753 19.812 75.9589 20.196C75.7666 20.556 75.5262 20.964 75.2377 21.42C74.9733 21.852 74.7329 22.296 74.5165 22.752C74.3242 23.184 74.2281 23.604 74.2281 24.012C74.2281 24.324 74.3122 24.624 74.4805 24.912C74.6488 25.176 74.9252 25.308 75.3098 25.308C75.8868 25.308 76.6921 24.888 77.7258 24.048C78.7836 23.184 79.8533 21.732 80.9351 19.692L81.6202 20.376C81.0433 21.672 80.3461 22.824 79.5288 23.832C78.7355 24.816 77.8941 25.584 77.0046 26.136C76.1152 26.712 75.2137 27 74.3002 27C73.3146 27 72.5813 26.688 72.1005 26.064C71.6198 25.44 71.3553 24.768 71.3072 24.048C71.3072 24 71.3072 23.964 71.3072 23.94C71.3072 23.916 71.3072 23.892 71.3072 23.868C70.3457 25.02 69.4562 25.932 68.6388 26.604C67.8455 27.276 66.9921 27.612 66.0786 27.612Z" fill="#D7B686"/>
<path d="M83.3632 27.576C82.3055 27.576 81.4521 27.264 80.803 26.64C80.1539 26.016 79.8294 25.068 79.8294 23.796C79.8294 22.812 80.0097 21.588 80.3703 20.124C80.7549 18.66 81.2357 17.148 81.8127 15.588C81.6444 15.54 81.44 15.504 81.1996 15.48C80.9833 15.432 80.7669 15.36 80.5506 15.264V14.148C80.9352 14.196 81.2477 14.232 81.4881 14.256C81.7526 14.28 82.017 14.304 82.2814 14.328C82.7863 13.056 83.3272 11.832 83.9041 10.656C84.5051 9.456 85.0941 8.388 85.671 7.452C86.272 6.516 86.8369 5.784 87.3658 5.256C87.8947 4.704 88.3635 4.428 88.7721 4.428C89.0125 4.428 89.2409 4.524 89.4573 4.716C89.6736 4.884 89.7818 5.136 89.7818 5.472C89.7818 5.952 89.5294 6.636 89.0246 7.524C88.5438 8.412 87.9428 9.456 87.2216 10.656C86.5004 11.832 85.8032 13.092 85.1301 14.436C85.3225 14.436 85.5148 14.436 85.7071 14.436C85.8994 14.436 86.0797 14.436 86.248 14.436C87.3057 14.436 88.2553 14.424 89.0967 14.4C89.9621 14.352 90.8395 14.28 91.729 14.184V15.372C90.4068 15.492 89.1928 15.588 88.087 15.66C86.9812 15.732 85.9234 15.78 84.9138 15.804C84.8417 15.804 84.7695 15.804 84.6974 15.804C84.6253 15.804 84.5532 15.804 84.4811 15.804C83.9762 16.98 83.5315 18.192 83.1469 19.44C82.7863 20.664 82.606 21.864 82.606 23.04C82.606 24.024 82.7622 24.72 83.0747 25.128C83.3873 25.536 83.8801 25.74 84.5532 25.74C85.7552 25.74 86.9812 25.2 88.2312 24.12C89.5053 23.016 90.6112 21.528 91.5487 19.656L92.0536 20.016C91.4285 21.432 90.6472 22.716 89.7097 23.868C88.7962 25.02 87.7985 25.92 86.7168 26.568C85.635 27.24 84.5171 27.576 83.3632 27.576Z" fill="#D7B686"/>
<path d="M92.85 27.072C91.7682 27.072 91.0229 26.712 90.6143 25.992C90.2296 25.296 90.0373 24.528 90.0373 23.688C90.0373 22.92 90.1575 22.14 90.3979 21.348C90.6383 20.532 90.9628 19.776 91.3715 19.08C91.8042 18.384 92.273 17.832 92.7778 17.424C93.3067 16.992 93.8356 16.776 94.3645 16.776C94.5327 16.776 94.725 16.812 94.9414 16.884C95.1818 16.932 95.3501 17.016 95.4462 17.136C95.1578 17.496 94.8573 17.94 94.5448 18.468C94.2563 18.996 93.9798 19.56 93.7154 20.16C93.475 20.736 93.2827 21.324 93.1384 21.924C92.9942 22.524 92.9221 23.076 92.9221 23.58C92.9221 24.06 93.0062 24.456 93.1745 24.768C93.3668 25.08 93.6913 25.236 94.1481 25.236C94.6048 25.236 95.1457 24.984 95.7708 24.48C96.4198 23.952 97.0329 23.352 97.6098 22.68C96.8405 21.984 96.2876 21.228 95.9511 20.412C95.6145 19.572 95.4462 18.564 95.4462 17.388C95.4462 16.884 95.5664 16.308 95.8068 15.66C96.0713 15.012 96.4799 14.448 97.0329 13.968C97.6098 13.488 98.3791 13.248 99.3407 13.248C100.374 13.248 101.096 13.536 101.504 14.112C101.937 14.688 102.153 15.372 102.153 16.164C102.153 17.052 101.913 18.048 101.432 19.152C100.975 20.256 100.422 21.3 99.7734 22.284C100.062 22.428 100.398 22.5 100.783 22.5C101.144 22.5 101.576 22.416 102.081 22.248C102.586 22.08 103.079 21.804 103.56 21.42C104.04 21.012 104.425 20.472 104.714 19.8L105.363 20.268C104.834 21.492 104.125 22.392 103.235 22.968C102.37 23.52 101.516 23.796 100.675 23.796C100.362 23.796 100.05 23.772 99.7373 23.724C99.4248 23.652 99.1363 23.568 98.8719 23.472C98.0545 24.432 97.117 25.272 96.0592 25.992C95.0015 26.712 93.9317 27.072 92.85 27.072ZM98.5474 21.528C99.1243 20.688 99.6171 19.788 100.026 18.828C100.434 17.868 100.639 16.98 100.639 16.164C100.639 15.612 100.555 15.216 100.386 14.976C100.218 14.712 99.9657 14.58 99.6291 14.58C99.1724 14.58 98.7036 14.904 98.2228 15.552C97.742 16.2 97.5016 17.016 97.5016 18C97.5016 18.504 97.5858 19.116 97.754 19.836C97.9464 20.556 98.2108 21.12 98.5474 21.528Z" fill="#D7B686"/>
<path d="M108.106 27.756C106.904 27.756 105.93 27.504 105.185 27C104.464 26.52 103.947 25.908 103.634 25.164C103.322 24.396 103.165 23.616 103.165 22.824C103.165 22.128 103.262 21.588 103.454 21.204C103.646 20.82 103.887 20.544 104.175 20.376C104.464 20.184 104.728 20.04 104.968 19.944C105.233 19.848 105.425 19.74 105.545 19.62C106.146 18.996 106.759 18.276 107.384 17.46C108.034 16.62 108.586 15.696 109.043 14.688V14.328C109.043 13.368 109.199 12.696 109.512 12.312C109.849 11.904 110.233 11.7 110.666 11.7C110.954 11.7 111.159 11.772 111.279 11.916C111.423 12.06 111.507 12.228 111.531 12.42C111.531 12.564 111.495 12.732 111.423 12.924C111.375 13.116 111.351 13.38 111.351 13.716C111.351 14.436 111.519 15.264 111.856 16.2C112.216 17.112 112.565 18.084 112.902 19.116C113.262 20.148 113.442 21.204 113.442 22.284C113.442 22.572 113.43 22.836 113.406 23.076C113.382 23.316 113.346 23.544 113.298 23.76C114.043 23.568 114.777 23.16 115.498 22.536C116.219 21.888 116.904 20.94 117.553 19.692L117.986 20.016C117.529 21.384 116.868 22.488 116.003 23.328C115.137 24.144 114.128 24.648 112.974 24.84C112.589 25.824 111.952 26.556 111.063 27.036C110.197 27.516 109.211 27.756 108.106 27.756ZM107.853 26.172C108.334 26.172 108.779 26.052 109.187 25.812C109.596 25.572 109.921 25.224 110.161 24.768C109.175 24.552 108.286 24.168 107.493 23.616C106.699 23.064 106.086 22.5 105.654 21.924C105.317 21.996 105.149 22.32 105.149 22.896C105.149 23.688 105.377 24.432 105.834 25.128C106.291 25.824 106.964 26.172 107.853 26.172ZM110.45 23.688C110.498 23.52 110.522 23.328 110.522 23.112C110.546 22.872 110.558 22.692 110.558 22.572C110.534 21.492 110.389 20.424 110.125 19.368C109.861 18.312 109.596 17.232 109.332 16.128C108.899 16.872 108.394 17.676 107.817 18.54C107.24 19.404 106.699 20.1 106.194 20.628C106.579 21.276 107.144 21.888 107.889 22.464C108.635 23.04 109.488 23.448 110.45 23.688Z" fill="#D7B686"/>
<path d="M119.125 26.28C118.548 26.28 118.139 26.136 117.899 25.848C117.658 25.536 117.538 25.224 117.538 24.912C117.538 24.648 117.658 24.372 117.899 24.084C118.139 23.772 118.44 23.52 118.8 23.328C119.161 23.112 119.498 23.004 119.81 23.004C120.074 23.004 120.339 23.088 120.603 23.256C120.868 23.4 121 23.688 121 24.12C121 24.312 120.928 24.588 120.784 24.948C120.639 25.284 120.423 25.596 120.135 25.884C119.87 26.148 119.534 26.28 119.125 26.28Z" fill="#D7B686"/>
</g>
<defs>
<filter id="filter0_d" x="0" y="0" width="125" height="44" filterUnits="userSpaceOnUse" color-interpolation-filters="sRGB">
<feFlood flood-opacity="0" result="BackgroundImageFix"/>
<feColorMatrix in="SourceAlpha" type="matrix" values="0 0 0 0 0 0 0 0 0 0 0 0 0 0 0 0 0 0 127 0" result="hardAlpha"/>
<feOffset dy="4"/>
<feGaussianBlur stdDeviation="2"/>
<feComposite in2="hardAlpha" operator="out"/>
<feColorMatrix type="matrix" values="0 0 0 0 0 0 0 0 0 0 0 0 0 0 0 0 0 0 0.25 0"/>
<feBlend mode="normal" in2="BackgroundImageFix" result="effect1_dropShadow"/>
<feBlend mode="normal" in="SourceGraphic" in2="effect1_dropShadow" result="shape"/>
</filter>
</defs>
</svg>
