<svg width="18" height="18" viewBox="0 0 18 18" fill="none" xmlns="http://www.w3.org/2000/svg">
<path d="M16.667 0.666748H1.33366C0.964909 0.666748 0.666992 0.964665 0.666992 1.33341V16.6667C0.666992 17.0355 0.964909 17.3334 1.33366 17.3334H16.667C17.0357 17.3334 17.3337 17.0355 17.3337 16.6667V1.33341C17.3337 0.964665 17.0357 0.666748 16.667 0.666748ZM13.4857 6.70216C13.492 6.80008 13.492 6.90216 13.492 7.00216C13.492 10.0605 11.1628 13.5834 6.90657 13.5834C5.59407 13.5834 4.37741 13.2022 3.35241 12.5459C3.53991 12.5667 3.71908 12.5751 3.91074 12.5751C4.99408 12.5751 5.98991 12.2084 6.78366 11.5876C5.76699 11.5667 4.91282 10.9001 4.62116 9.98341C4.97741 10.0355 5.29824 10.0355 5.66491 9.94175C5.14142 9.83539 4.6709 9.55109 4.33328 9.13713C3.99565 8.72317 3.81176 8.20509 3.81282 7.67091V7.64175C4.11908 7.81466 4.47949 7.92091 4.85658 7.9355C4.53958 7.72424 4.27961 7.43802 4.09972 7.10223C3.91983 6.76643 3.82558 6.39144 3.82533 6.0105C3.82533 5.57925 3.93783 5.1855 4.13991 4.84383C4.72096 5.55911 5.44601 6.14413 6.26796 6.56084C7.0899 6.97756 7.99034 7.21665 8.91074 7.26258C8.58366 5.68966 9.75866 4.41675 11.1712 4.41675C11.8378 4.41675 12.4378 4.69591 12.8607 5.14591C13.3837 5.048 13.8837 4.85216 14.3295 4.58966C14.1566 5.12508 13.7941 5.57716 13.3128 5.86258C13.7795 5.81258 14.2295 5.68341 14.6462 5.50216C14.3316 5.96466 13.9378 6.37508 13.4857 6.70216Z" fill="#AAAAAA"/>
</svg>
