<svg width="60" height="60" viewBox="0 0 60 60" fill="none" xmlns="http://www.w3.org/2000/svg">
<path d="M57.2119 20.7668C56.8413 20.0011 56.1744 19.4576 55.3592 19.2353C55.8039 18.4448 55.878 17.4815 55.4827 16.6416C55.1369 15.9252 54.5194 15.3818 53.7289 15.1348C52.9631 14.9125 52.148 14.9619 51.4069 15.3077C50.1965 15.8758 49.5296 17.3086 49.5296 18.5684C48.0721 19.2353 44.6386 20.7915 42.9341 21.582C42.7612 21.5573 42.5636 21.5326 42.3413 21.5326C41.3038 21.5326 39.3771 21.829 37.3021 22.2489C33.745 19.5317 29.521 18.0743 25.0746 18.0743C13.9587 18.0743 4.86841 27.214 4.49788 38.6016C3.21338 38.9228 2.25 40.0591 2.25 41.4177C2.25 43.0233 3.60861 44.3325 5.26364 44.3325H45.9231C47.5781 44.3325 48.9367 43.0233 48.9367 41.4177C48.9367 39.812 47.5781 38.5028 45.9231 38.5028H45.6761C45.5525 35.1434 44.6386 31.858 43.0576 28.9432L45.3055 27.1893C45.4537 27.0658 45.5772 26.8929 45.6514 26.6953C45.6514 26.6706 45.6761 26.5965 45.7008 26.4977C47.3805 25.7072 50.2459 24.3486 51.7033 23.657C52.4691 24.9168 54.1735 25.4108 55.6309 24.7191C57.1625 24.0028 57.8788 22.2242 57.2119 20.7668ZM46.9112 41.4177C46.9112 41.9364 46.4418 42.3563 45.8737 42.3563H5.21424C4.64609 42.3563 4.17675 41.9364 4.17675 41.4177C4.17675 40.8989 4.64609 40.479 5.21424 40.479H45.8737C46.4418 40.479 46.9112 40.8989 46.9112 41.4177ZM43.6505 38.5028H6.42463C6.84456 28.2515 15.0456 20.0505 25.0252 20.0505C28.4588 20.0505 31.7194 20.9891 34.5849 22.7924C31.423 23.484 28.5576 24.2004 28.3106 24.2498C28.2365 24.2745 27.446 24.645 27.446 24.645C25.1981 25.7072 22.9502 29.8819 24.5559 33.2907C25.7416 35.8103 28.7058 36.9713 30.9537 36.9713C31.7688 36.9713 32.5099 36.8231 33.0781 36.5514C33.3745 36.4032 33.6709 36.2303 33.9179 35.9832L41.4026 30.1783C42.7612 32.7226 43.527 35.5633 43.6505 38.5028ZM32.7075 34.427C32.6828 34.4517 32.6581 34.4517 32.6581 34.4764C32.5346 34.5752 32.4111 34.674 32.2629 34.7234C31.9418 34.8716 31.4971 34.9458 30.9784 34.9458C29.2987 34.9458 27.1743 34.0812 26.3838 32.4015C25.2722 30.0301 27.0261 27.0164 28.3353 26.3989L28.9281 26.1272C31.9665 25.3614 40.0193 23.5087 42.3166 23.5087C42.5142 23.5087 42.5883 23.5334 42.613 23.5334C43.1071 23.657 43.4529 23.8793 43.6258 24.2251C43.8728 24.6697 43.8728 25.2626 43.8234 25.6825V25.7072C43.8234 25.7566 43.7987 25.806 43.7987 25.8554L32.7075 34.427ZM54.7417 22.9406C54.1488 23.2123 53.5066 23.0394 53.309 22.5948C53.2843 22.5454 53.0372 22.0019 53.0372 21.9772L52.642 21.0138L51.7033 21.4585C51.7033 21.4585 48.171 23.1382 45.7255 24.2992C45.6514 23.9534 45.5278 23.6076 45.3549 23.2617C45.2561 23.0888 45.1573 22.9406 45.0338 22.7924C47.4793 21.6808 51.0117 20.0752 51.0117 20.0752L51.8268 19.7046L51.5551 18.8648C51.4069 18.3707 51.7527 17.358 52.2715 17.1109C52.5679 16.9627 52.889 16.938 53.1855 17.0368C53.3337 17.0862 53.5807 17.2097 53.7289 17.4815C53.9265 17.9014 53.7042 18.4448 53.2102 18.7413L52.4691 19.2106L53.3584 21.3844L54.2476 21.1621C54.7664 21.0385 55.2851 21.2115 55.458 21.6067C55.6309 22.0513 55.3345 22.6689 54.7417 22.9406Z" fill="#E3C08D"/>
<path d="M10.3523 32.3655C9.80889 32.3655 9.36426 32.8101 9.36426 33.3536V33.6747C9.36426 34.2181 9.80889 34.6628 10.3523 34.6628C10.8958 34.6628 11.3404 34.2181 11.3404 33.6747V33.3536C11.3404 32.8101 10.8958 32.3655 10.3523 32.3655Z" fill="#E3C08D"/>
<path d="M13.5138 31.995V31.6739C13.5138 31.1304 13.0691 30.6858 12.5257 30.6858C11.9822 30.6858 11.5376 31.1304 11.5376 31.6739V31.995C11.5376 32.5384 11.9822 32.9831 12.5257 32.9831C13.0691 32.9831 13.5138 32.5384 13.5138 31.995Z" fill="#E3C08D"/>
<path d="M13.0691 34.0452C12.5257 34.0452 12.0811 34.4898 12.0811 35.0332V35.3544C12.0811 35.8978 12.5257 36.3425 13.0691 36.3425C13.6126 36.3425 14.0572 35.8978 14.0572 35.3544V35.0332C14.0572 34.4898 13.6126 34.0452 13.0691 34.0452Z" fill="#E3C08D"/>
</svg>
