<svg width="53" height="45" viewBox="0 0 53 45" fill="none" xmlns="http://www.w3.org/2000/svg">
<path d="M50.4609 21.5193H3.04687C1.78125 21.5193 0.75 22.4568 0.75 23.6287V25.9724C0.75 27.1443 1.78125 28.0818 3.04687 28.0818H4.26562V35.9333C4.26562 40.4333 7.07812 44.0896 10.5234 44.0896H42.5391C45.9844 44.0896 48.7969 40.4333 48.7969 35.9333V28.0818H50.4844C51.75 28.0818 52.7812 27.1443 52.7812 25.9724V23.6287C52.7812 22.4568 51.75 21.5193 50.4609 21.5193ZM46.9219 25.1052V26.2068H6.14062V25.1052C6.14062 24.5193 6.21094 23.9568 6.30469 23.3943H46.6875C46.8281 23.9568 46.9219 24.4021 46.9219 25.1052ZM3.04687 26.2068C2.78906 26.2068 2.625 26.0662 2.625 25.9724V23.6287C2.625 23.5349 2.78906 23.3943 3.04687 23.3943H4.40625C4.3125 23.9568 4.26562 24.5193 4.26562 25.1052V26.2068H3.04687ZM46.9219 35.9333C46.9219 39.4021 44.9531 42.2146 42.5391 42.2146H10.5C8.08594 42.2146 6.11719 39.4021 6.11719 35.9333V28.0818H46.8984V35.9333H46.9219ZM50.9062 25.9724C50.9062 26.0662 50.7422 26.2068 50.4844 26.2068H48.7969V25.1052C48.7969 24.4255 48.7266 23.8865 48.6094 23.3943H50.4609C50.7188 23.3943 50.8828 23.5349 50.8828 23.6287V25.9724H50.9062Z" fill="#E3C08D"/>
<path d="M12.5627 11.5818C13.2658 13.8318 15.8674 15.0037 17.1565 15.3084C17.2268 15.3318 17.2971 15.3318 17.3674 15.3318C17.7893 15.3318 18.1643 15.0506 18.2815 14.6053C18.3987 14.1131 18.094 13.5975 17.5783 13.4803C16.4768 13.2225 14.719 12.285 14.344 11.0193C14.0862 10.2225 14.4377 9.30839 15.3283 8.30058C16.5705 6.91777 17.0862 5.51152 16.8987 4.08183C16.594 1.83183 14.5315 0.472455 14.4612 0.42558C14.0158 0.14433 13.4533 0.261518 13.1721 0.70683C12.8908 1.12871 13.008 1.71464 13.4533 1.99589C13.4768 1.99589 14.883 2.95683 15.0705 4.36308C15.1877 5.20683 14.8127 6.12089 13.969 7.05839C12.2346 8.98027 12.258 10.574 12.5627 11.5818Z" fill="#E3C08D"/>
<path d="M22.3359 11.5818C23.0391 13.8318 25.6406 15.0037 26.9297 15.3084C27 15.3318 27.0703 15.3318 27.1406 15.3318C27.5625 15.3318 27.9375 15.0506 28.0547 14.6053C28.1719 14.1131 27.8672 13.5975 27.3516 13.4803C26.25 13.2225 24.4922 12.285 24.1172 11.0193C23.8594 10.2225 24.2109 9.30839 25.1016 8.30058C26.3437 6.91777 26.8594 5.51152 26.6719 4.08183C26.3672 1.83183 24.3047 0.472455 24.2109 0.42558C23.7656 0.14433 23.2031 0.261518 22.9219 0.70683C22.6406 1.12871 22.7578 1.71464 23.2031 1.99589C23.2266 1.99589 24.6328 2.95683 24.8203 4.36308C24.9375 5.20683 24.5625 6.12089 23.7187 7.05839C22.0078 8.98027 22.0078 10.574 22.3359 11.5818Z" fill="#E3C08D"/>
<path d="M31.7811 11.5818C32.4843 13.8318 35.0858 15.0037 36.3749 15.3084C36.4452 15.3318 36.5155 15.3318 36.5858 15.3318C37.0077 15.3318 37.3827 15.0506 37.4999 14.6053C37.6171 14.1131 37.3124 13.5975 36.7968 13.4803C35.6952 13.2225 33.9374 12.285 33.5624 11.0193C33.3046 10.2225 33.6561 9.30839 34.5468 8.30058C35.789 6.91777 36.3046 5.51152 36.1171 4.08183C35.8124 1.80839 33.7499 0.449018 33.6561 0.402143C33.2108 0.120893 32.6483 0.238079 32.3671 0.683392C32.0858 1.10527 32.203 1.6912 32.6483 1.97245C32.6718 1.97245 34.078 2.93339 34.2655 4.33964C34.3827 5.18339 34.0077 6.09745 33.164 7.03495C31.453 8.98027 31.4765 10.574 31.7811 11.5818Z" fill="#E3C08D"/>
</svg>
