<svg width="60" height="60" viewBox="0 0 60 60" fill="none" xmlns="http://www.w3.org/2000/svg">
<path d="M52.0797 40.0969C53.0931 39.2861 53.7012 38.2221 53.7012 37.006C53.7012 35.5365 52.7891 34.2444 51.3197 33.4083C52.7891 32.5723 53.7265 31.2802 53.7265 29.7854C53.7265 28.7973 53.3212 27.9106 52.6118 27.1505C52.7638 27.0999 52.8905 27.0492 53.0171 26.9478C54.6639 25.5291 55.5 24.0089 55.5 22.3621C55.5 19.4232 52.7131 16.7377 47.6714 14.8122C42.9337 13.0134 36.6505 12 29.9873 12C23.3241 12 17.041 12.9881 12.3033 14.8122C7.28689 16.763 4.5 19.4486 4.5 22.3875C4.5 24.0343 5.33607 25.5544 6.98286 26.9732C7.10954 27.0999 7.28689 27.1759 7.4389 27.2012C6.72951 27.9359 6.32414 28.8227 6.32414 29.8107C6.32414 31.2802 7.23622 32.5723 8.70566 33.4083C7.23622 34.2444 6.29881 35.5365 6.29881 37.0313C6.29881 38.1967 6.88152 39.2355 7.84426 40.0462C6.27347 40.7556 5.15872 42.2504 5.15872 44.0238C5.15872 46.456 7.23621 48.4069 9.82042 48.4069H49.9009C52.4598 48.4069 54.5626 46.4307 54.5626 44.0238C54.5879 42.301 53.5745 40.8316 52.0797 40.0969ZM10.7325 39.2608L13.038 36.0179L14.2288 39.5902H12.8353C12.0753 39.5902 11.3659 39.4635 10.7325 39.2608ZM37.1826 27.2265L30.0887 32.1669L23.2228 27.2265H33.7623H37.1826ZM48.7861 34.5991L47.9247 37.5127C47.7981 37.2086 47.6714 36.93 47.57 36.6259C47.2154 35.7392 46.886 35.0045 46.658 34.4218H47.2153C47.7474 34.4218 48.2794 34.4978 48.7861 34.5991ZM42.2243 37.842L40.7548 34.4218H43.4911C43.263 35.0045 42.9843 35.7392 42.655 36.6513C42.503 37.0566 42.351 37.462 42.2243 37.842ZM31.6088 34.4218L29.7847 38.1207L28.2899 34.4218H31.6088ZM14.6341 34.4218H18.3078L15.9262 38.2474L14.6341 34.4218ZM19.9799 35.5618L21.7534 39.5902H17.4717L19.9799 35.5618ZM21.6773 34.4218H25.1483L23.3241 38.1967L21.6773 34.4218ZM26.6937 35.9165L28.1885 39.6155H24.9203L26.6937 35.9165ZM33.1289 35.9165L34.5477 39.5902H31.3301L33.1289 35.9165ZM34.725 34.4218H37.6386L36.0931 37.9687L34.725 34.4218ZM39.1841 35.9419L40.7548 39.5902H37.5879L39.1841 35.9419ZM45.0872 35.9165C45.5179 36.93 46.0499 38.2474 46.582 39.5902H43.7444C44.2258 38.2727 44.6818 36.9553 45.0872 35.9165ZM49.5462 39.1848L50.661 35.4098C51.2943 35.8659 51.6744 36.4232 51.6744 37.006C51.6744 37.8927 50.813 38.7034 49.5462 39.1848ZM47.2407 32.3949H47.19H39.1841H33.2809L40.7042 27.2265H47.2407C49.6222 27.2265 51.725 28.4426 51.725 29.8107C51.725 31.1788 49.6222 32.3949 47.2407 32.3949ZM6.52683 22.3875C6.52683 20.3607 8.90835 18.3085 13.038 16.7377C17.5477 15.0149 23.5775 14.0775 29.9873 14.0775C36.3972 14.0775 42.427 15.0149 46.9367 16.7377C51.0917 18.3085 53.4478 20.386 53.4478 22.3875C53.4478 23.3249 52.9411 24.2623 51.9277 25.1997H47.2407H33.7623H20.0812H12.8607H8.04694C7.05887 24.2623 6.52683 23.3249 6.52683 22.3875ZM12.8607 27.2265H19.7265L26.8964 32.3949H12.8607C10.4791 32.3949 8.3763 31.1788 8.3763 29.8107C8.40164 28.4173 10.4791 27.2265 12.8607 27.2265ZM11.6192 34.5231L8.95902 38.2474C8.57899 37.8674 8.35097 37.4367 8.35097 37.006C8.35097 35.8659 9.76975 34.8525 11.6192 34.5231ZM49.9262 46.3547H9.84575C8.40164 46.3547 7.21088 45.2906 7.21088 43.9985C7.21088 42.7064 8.40164 41.6423 9.84575 41.6423H12.8353H47.2153H49.9516C51.3957 41.6423 52.5864 42.7064 52.5864 43.9985C52.5864 45.2906 51.3957 46.3547 49.9262 46.3547Z" fill="#E3C08D"/>
<path d="M16.8889 20.4619C17.4463 20.4619 17.9023 20.0059 17.9023 19.4485V19.1191C17.9023 18.5617 17.4463 18.1057 16.8889 18.1057C16.3315 18.1057 15.8755 18.5617 15.8755 19.1191V19.4485C15.8755 20.0059 16.3315 20.4619 16.8889 20.4619Z" fill="#E3C08D"/>
<path d="M19.093 18.7392C19.6504 18.7392 20.1064 18.2832 20.1064 17.7258V17.3965C20.1064 16.8391 19.6504 16.3831 19.093 16.3831C18.5356 16.3831 18.0796 16.8391 18.0796 17.3965V17.7258C18.0796 18.2832 18.5356 18.7392 19.093 18.7392Z" fill="#E3C08D"/>
<path d="M18.6626 20.842V21.1714C18.6626 21.7288 19.1186 22.1848 19.676 22.1848C20.2334 22.1848 20.6894 21.7288 20.6894 21.1714V20.842C20.6894 20.2846 20.2334 19.8286 19.676 19.8286C19.1186 19.8286 18.6626 20.2846 18.6626 20.842Z" fill="#E3C08D"/>
</svg>
